<svg width="15" height="15" viewBox="0 0 15 15" fill="none" xmlns="http://www.w3.org/2000/svg">
<rect x="0.5" y="0.5" width="14" height="14" stroke="white"/>
<g width="8" height="6" viewBox="0 0 8 6" fill="none" xmlns="http://www.w3.org/2000/svg" transform="translate(3.5, 7)">
<path d="M1.23292 4.9585H2.4558V0.123954H1.22957L-1.1879e-06 0.961539V2.02025L1.20947 1.20276H1.23292V4.9585ZM5.44723 5.07911C6.71031 5.07911 7.49094 4.10751 7.49094 2.5295C7.49094 0.941437 6.70026 -8.92207e-06 5.44723 -8.92207e-06C4.19086 -8.92207e-06 3.39683 0.944787 3.39683 2.53285C3.39683 4.11421 4.18081 5.07911 5.44723 5.07911ZM5.44723 4.12091C4.96478 4.12091 4.6465 3.57481 4.6465 2.5295C4.6465 1.49089 4.96814 0.958189 5.44723 0.958189C5.92633 0.958189 6.24126 1.48754 6.24126 2.53285C6.24126 3.57816 5.92633 4.12091 5.44723 4.12091Z" fill="white"/>
</g>
<g width="9" height="4" viewBox="0 0 9 4" fill="none" xmlns="http://www.w3.org/2000/svg" transform="translate(3, 3)">
<path d="M1.62653 3.12524V0.683389H2.47383V0.0532323H4.31282e-05V0.683389H0.847348V3.12524H1.62653ZM4.05425 9.66992e-06C3.12392 9.66992e-06 2.53634 0.611006 2.53634 1.5903C2.53634 2.5696 3.12179 3.17847 4.05425 3.17847C4.98458 3.17847 5.57003 2.5696 5.57003 1.5903C5.57003 0.611006 4.98458 9.66992e-06 4.05425 9.66992e-06ZM4.05425 0.634424C4.49067 0.634424 4.77595 1.00485 4.77595 1.5903C4.77595 2.17362 4.49067 2.54405 4.05425 2.54405C3.61569 2.54405 3.33255 2.17362 3.33255 1.5903C3.33255 1.00485 3.61782 0.634424 4.05425 0.634424ZM5.93058 0.0532323V3.12524H6.71189V2.22472H7.21431C7.89769 2.22472 8.36818 1.79681 8.36818 1.1411C8.36818 0.481142 7.92111 0.0532323 7.26115 0.0532323H5.93058ZM6.71189 0.651455H7.05464C7.3825 0.651455 7.57836 0.823896 7.57836 1.14323C7.57836 1.4647 7.3825 1.63714 7.05039 1.63714H6.71189V0.651455Z" fill="white"/>
</g>
</svg>
