<<<<<<< HEAD
<svg width="22" height="22" viewBox="0 0 22 22" fill="none" xmlns="http://www.w3.org/2000/svg">
<path d="M11 21C16.5228 21 21 16.5228 21 11C21 5.47715 16.5228 1 11 1C5.47715 1 1 5.47715 1 11C1 16.5228 5.47715 21 11 21Z" stroke="white" stroke-width="2" stroke-linecap="round" stroke-linejoin="round"/>
<path d="M11 15V11" stroke="white" stroke-width="2" stroke-linecap="round" stroke-linejoin="round"/>
<path d="M11 7H11.01" stroke="white" stroke-width="2" stroke-linecap="round" stroke-linejoin="round"/>
=======
<svg width="24" height="24" viewBox="0 0 24 24" fill="none" xmlns="http://www.w3.org/2000/svg">
<path d="M12 22C17.5228 22 22 17.5228 22 12C22 6.47715 17.5228 2 12 2C6.47715 2 2 6.47715 2 12C2 17.5228 6.47715 22 12 22Z" stroke="white" stroke-width="2" stroke-linecap="round" stroke-linejoin="round"/>
<path d="M12 16V12" stroke="white" stroke-width="2" stroke-linecap="round" stroke-linejoin="round"/>
<path d="M12 8H12.01" stroke="white" stroke-width="2" stroke-linecap="round" stroke-linejoin="round"/>
>>>>>>> 4cdc2c0cc978a8d9bdcd8c6b7449404c52713c21
</svg>
